<svg preserveAspectRatio="none" width="100%" height="100%" overflow="visible" style="display: block;" viewBox="0 0 13.9999 23.0769" fill="none" xmlns="http://www.w3.org/2000/svg">
<g id="Margin">
<path id="Icon" d="M6.99996 23.0769C6.49484 23.0769 6.05926 22.9019 5.69324 22.5519C5.32722 22.2019 5.12818 21.7743 5.09612 21.2692H8.9038C8.87175 21.7743 8.67271 22.2019 8.30669 22.5519C7.94066 22.9019 7.50509 23.0769 6.99996 23.0769V23.0769M3.24998 19.8845V18.3846H10.7499V19.8845H3.24998V19.8845M3.40382 16.9999C2.35639 16.3486 1.52723 15.4977 0.916339 14.4471C0.305446 13.3964 0 12.2474 0 11C0 9.05126 0.679484 7.39742 2.03845 6.03845C3.39742 4.67948 5.05126 4 6.99996 4C8.94867 4 10.6025 4.67948 11.9615 6.03845C13.3204 7.39742 13.9999 9.05126 13.9999 11C13.9999 12.2474 13.6945 13.3964 13.0836 14.4471C12.4727 15.4977 11.6435 16.3486 10.5961 16.9999H3.40382V16.9999M3.84996 15.5H10.15C10.9 14.9666 11.4791 14.3083 11.8875 13.525C12.2958 12.7416 12.5 11.9 12.5 11C12.5 9.46663 11.9666 8.16663 10.9 7.09996C9.8333 6.0333 8.5333 5.49996 6.99996 5.49996C5.46663 5.49996 4.16663 6.0333 3.09996 7.09996C2.0333 8.16663 1.49996 9.46663 1.49996 11C1.49996 11.9 1.70413 12.7416 2.11246 13.525C2.5208 14.3083 3.09996 14.9666 3.84996 15.5V15.5M6.99996 15.5V15.5V15.5V15.5V15.5V15.5V15.5V15.5V15.5V15.5V15.5" fill="var(--fill-0, #326270)"/>
</g>
</svg>
