<svg preserveAspectRatio="none" width="100%" height="100%" overflow="visible" style="display: block;" viewBox="0 0 533 421" fill="none" xmlns="http://www.w3.org/2000/svg">
<g id="image 9 [Vectorized]">
<g id="Vector">
</g>
<path id="Vector_2" d="M247.477 64.419C248.052 64.7898 284.114 122.327 287.997 127.924C290.797 129.246 298.303 131.721 301.499 132.877L328.807 142.687C330.798 149.129 336.05 161.136 338.635 167.425L355.921 209.911C341.224 210.221 325.666 209.968 310.915 209.944L241.778 209.889C247.778 195.727 254.754 181.703 260.631 167.473C256.678 158.11 251.239 144.77 247.761 135.084C247.236 133.621 247.512 121.183 247.518 118.808L247.623 84.8887L247.503 84.4534C247.447 84.4852 247.392 84.5169 247.336 84.5484C232.936 108.489 217.945 133.704 204.849 158.297C202.566 165.005 200.87 172.066 199.132 178.956C197.798 184.242 196.027 189.516 194.772 194.772C193.401 192.197 190.795 188.655 189.201 186.042C185.569 180.089 181.607 173.963 178.3 167.841C171.761 181.708 164.46 195.907 158.403 209.938C154.641 210.004 150.646 209.907 146.867 209.879C154.936 192.884 163.531 176.135 171.533 159.096C179.257 156.918 188.61 154.67 196.463 152.898C197.153 151.364 198.935 148.43 199.832 146.859L206.505 135.169C214.933 120.312 223.492 105.53 232.182 90.8259L242.085 74.0338C243.826 71.047 246.053 67.4693 247.477 64.419Z" fill="var(--fill-0, #3D3D3D)"/>
<path id="Vector_3" d="M289.535 138.781C291.466 139.215 296.052 141.075 298.126 141.785C304.523 143.972 310.946 146.463 317.377 148.536C313.624 154.039 310.137 160.212 306.407 165.891C304.013 169.561 301.548 173.186 299.016 176.764C298.155 172.635 296.921 168.25 295.896 164.127L289.535 138.781Z" fill="var(--fill-0, #F4E4C7)"/>
<path id="Vector_4" d="M146.528 243.526C150.44 243.456 154.353 243.445 158.265 243.495C158.9 245.765 163.047 253.735 164.322 256.253C168.73 265.035 173.24 273.764 177.853 282.442C182.511 274.295 189.397 264.057 194.614 256.089C195.593 260.585 197.63 267.116 198.929 271.633C200.166 275.929 202.561 285.46 204.391 289.072C206.285 292.814 212.166 300.315 214.88 304.153C222.137 314.387 229.454 324.579 236.832 334.726C240.323 339.493 243.953 344.122 247.401 348.92L247.424 321.342C247.421 319.161 247.113 308.324 247.699 306.854C251.088 298.332 255.349 288.177 259.441 280.017C257.491 276.603 254.808 270.619 253.007 266.913L241.618 243.529C251.261 243.288 261.732 243.498 271.427 243.498L327.009 243.497C336.087 243.45 345.164 243.464 354.242 243.538C353.295 245.256 352.064 248.499 351.21 250.464L345.32 263.843C339.668 276.72 333.953 289.569 328.172 302.389C323.259 303.921 289.238 314.189 287.705 315.617C285.394 317.769 283.435 320.423 281.42 322.856C277.587 327.493 273.792 332.158 270.034 336.855L256.354 354.207C253.597 357.657 250.006 361.748 247.554 365.245C236.357 351.061 224.202 334.151 213.612 319.411C210.229 314.67 206.821 309.945 203.39 305.241C201.374 302.441 198.848 298.707 196.627 296.17C188.319 294.838 179.535 292.431 171.014 291.073C169.913 288.195 164.267 278.092 162.569 274.829L146.528 243.526Z" fill="var(--fill-0, #3D3D3D)"/>
<path id="Vector_5" d="M298.745 269.461C300.369 270.619 314.397 292.938 316.75 295.983C311.909 297.292 306.949 298.959 302.157 300.489C297.717 301.986 293.267 303.456 288.809 304.9C291.768 293.313 296.07 281.066 298.745 269.461Z" fill="var(--fill-0, #F4E4C7)"/>
<path id="Vector_6" d="M67.5666 219.645C80.2326 219.988 94.2673 219.687 107.033 219.688L185.303 219.664L436.425 219.67C436.373 224.345 436.357 229.021 436.376 233.696C425.216 233.857 413.663 233.68 402.454 233.685L333.51 233.707L67.5931 233.743C67.4802 229.184 67.5671 224.233 67.5666 219.645Z" fill="var(--fill-0, #3D3D3D)"/>
<path id="Vector_7" d="M323.295 98.9657C330.832 97.6738 337.994 102.723 339.309 110.255C340.623 117.787 335.592 124.962 328.063 126.296C320.503 127.637 313.291 122.583 311.972 115.021C310.652 107.458 315.727 100.263 323.295 98.9657Z" fill="var(--fill-0, #FE0007)"/>
<path id="Vector_8" d="M382.032 242.406L382.355 242.36C385.15 241.942 384.934 240.286 386.857 240.835C387.487 241.634 387.513 242.244 387.531 243.302C386.974 244.73 386.729 245.037 385.858 246.274L385.584 246.416C380.437 249.032 375.744 244.258 382.032 242.406Z" fill="var(--fill-0, #959195)"/>
<path id="Vector_9" d="M382.032 242.406L382.355 242.36C385.15 241.942 384.934 240.286 386.857 240.835C387.487 241.634 387.513 242.244 387.531 243.302C387.476 243.188 387.164 242.627 386.953 242.639C385.134 242.747 383.809 243.018 382.032 242.406Z" fill="var(--fill-0, #A79D9D)"/>
<g id="Vector_10">
</g>
<g id="Vector_11">
</g>
<g id="Vector_12">
</g>
<g id="Vector_13">
</g>
<g id="Vector_14">
</g>
<g id="Vector_15">
</g>
<g id="Vector_16">
</g>
<g id="Vector_17">
</g>
<g id="Vector_18">
</g>
<g id="Vector_19">
</g>
<path id="Vector_20" d="M355.798 393.026L356.16 393.377C356.181 394.509 355.754 395.324 355.34 396.393L355.002 396.063C354.929 395.084 355.447 393.991 355.798 393.026Z" fill="var(--fill-0, #B7AA8F)"/>
</g>
</svg>
