<svg preserveAspectRatio="none" width="100%" height="100%" overflow="visible" style="display: block;" viewBox="0 0 560 417" fill="none" xmlns="http://www.w3.org/2000/svg">
<g id="image 10 [Vectorized]" clip-path="url(#clip0_31_1694)">
<path id="Vector" d="M0 0H560V417H0V146.362V145.141V0Z" fill="var(--fill-0, #F4DDB4)"/>
<path id="Vector_2" d="M0 145.141C2.16083 146.095 5.67189 149.381 6.29374 151.709L6.04275 152.004C4.01393 151.411 1.4165 148.033 0 146.362V145.141Z" fill="var(--fill-0, #E7CB9F)"/>
<path id="Vector_3" d="M85.7128 208.44L466 208.376C465.946 210.258 466.225 217.287 465.484 218.404L464.639 218.515L209.048 218.632L134.926 218.646C118.759 218.602 101.839 218.308 85.7145 218.634C85.6116 215.364 85.6991 211.736 85.7128 208.44Z" fill="var(--fill-0, #3E3D3D)"/>
<path id="Vector_4" d="M275.844 111.447C276.404 111.712 278.242 115.015 278.701 115.764C287.651 130.47 295.963 145.555 303.609 160.979C306.406 159.238 308.932 158.331 312.143 157.755C315.339 164.833 318.793 171.088 322.364 177.943C326.03 185.056 329.593 192.223 333.05 199.44L323.247 199.401C322.604 197.728 320.906 194.547 320.064 192.867C317.477 187.752 314.85 182.657 312.184 177.584C310.715 174.752 308.766 171.221 307.606 168.314C303.469 169.899 301.506 171.397 297.7 173.231C295.455 168.079 293.316 162.655 290.981 157.488C289.805 155.079 289.1 151.131 287.809 148.896C284.154 142.568 280.402 133.972 275.762 128.479L275.852 133.744C276.008 145.825 273.998 150.3 269.8 161.397C267.595 167.215 265.421 173.044 263.278 178.885C265.597 182.966 272.368 195.428 273.686 199.435L217.436 199.507C221.692 190.542 227.027 181.801 231.437 172.896C232.679 170.387 233.939 167.837 235.329 165.411C237.626 165.38 239.568 165.544 241.852 165.72C251.829 147.657 264.767 128.945 275.844 111.447Z" fill="var(--fill-0, #3E3D3D)"/>
<path id="Vector_5" d="M253.663 188.82C254.848 189.12 254.445 188.874 255.253 189.692C255.382 190.682 255.428 190.284 254.952 191.221C254.01 190.81 253.217 190.653 253.062 189.602L253.663 188.82Z" fill="var(--fill-0, #4D4946)"/>
<path id="Vector_6" d="M247.647 187.402L248.472 187.926C248.882 188.979 248.759 188.64 248.534 189.912C248.057 189.652 247.871 189.506 247.437 189.197C247.185 188.262 247.292 188.497 247.647 187.402Z" fill="var(--fill-0, #4D4946)"/>
<path id="Vector_7" d="M273.451 84.6045C277.914 83.4755 282.442 86.2047 283.527 90.679C284.613 95.1534 281.838 99.6534 277.353 100.695C272.931 101.722 268.507 98.9944 267.436 94.5819C266.366 90.1693 269.05 85.718 273.451 84.6045Z" fill="var(--fill-0, #FF0017)"/>
<path id="Vector_8" d="M273.129 226.997C276.093 226.773 278.564 227.133 279.697 230.272C280.777 233.265 279.046 235.211 276.407 236.075C274.162 236.659 272.133 236.302 270.848 234.194C270.107 232.955 269.931 231.46 270.362 230.084C270.916 228.33 271.65 227.789 273.129 226.997Z" fill="var(--fill-0, #3E3D3D)"/>
<path id="Vector_9" d="M258.882 227.005C265.877 226.348 268.063 232.837 262.162 236.262C254.759 236.581 253.406 229.517 258.882 227.005Z" fill="var(--fill-0, #3E3D3D)"/>
<path id="Vector_10" d="M302.047 227.076C303.685 226.541 305.484 226.929 306.756 228.091C308.027 229.254 308.574 231.011 308.186 232.69C307.8 234.368 306.54 235.709 304.888 236.198C302.384 236.94 299.748 235.533 298.968 233.038C298.192 230.544 299.564 227.888 302.047 227.076Z" fill="var(--fill-0, #3E3D3D)"/>
<path id="Vector_11" d="M287.872 227.018C288.487 226.96 290.399 226.811 290.899 227.083C295.911 229.801 294.82 234.13 290.38 236.231C283.68 236.639 282.308 229.489 287.872 227.018Z" fill="var(--fill-0, #3E3D3D)"/>
<path id="Vector_12" d="M230.575 227.037C233.063 226.286 235.693 227.678 236.47 230.158C237.248 232.639 235.883 235.283 233.411 236.087C231.788 236.614 230.008 236.229 228.748 235.079C227.488 233.928 226.943 232.19 227.321 230.526C227.699 228.863 228.941 227.53 230.575 227.037Z" fill="var(--fill-0, #3E3D3D)"/>
<path id="Vector_13" d="M231.846 230.135C232.915 230.515 232.884 230.314 233.469 231.063C233.326 231.976 233.279 231.77 232.537 232.595C231.424 232.397 231.306 232.47 230.73 231.743C230.999 230.704 230.951 231.002 231.846 230.135Z" fill="var(--fill-0, #4D4946)"/>
<path id="Vector_14" d="M315.973 227.269C316.449 227.218 318.629 227.059 318.946 227.176C324.581 229.265 323.534 233.671 319.471 236.27C313.873 237.599 310.461 230.208 315.973 227.269Z" fill="var(--fill-0, #3E3D3D)"/>
<path id="Vector_15" d="M244.762 227.028C247.141 226.791 248.963 227.162 250.282 229.378C250.986 230.537 251.141 231.948 250.707 233.232C250.141 234.921 249.166 235.397 247.721 236.114C245.181 236.539 242.819 235.867 241.795 233.295C241.306 232.1 241.335 230.755 241.876 229.581C242.635 227.924 243.203 227.606 244.762 227.028Z" fill="var(--fill-0, #3E3D3D)"/>
<path id="Vector_16" d="M359.704 227.056C362.198 226.406 364.752 227.88 365.436 230.364C366.119 232.848 364.681 235.421 362.204 236.138C360.574 236.61 358.816 236.169 357.602 234.982C356.387 233.795 355.906 232.046 356.341 230.405C356.778 228.764 358.064 227.484 359.704 227.056Z" fill="var(--fill-0, #3E3D3D)"/>
<path id="Vector_17" d="M215.682 227.284C218.382 226.906 220.808 227.077 222.088 229.863C223.428 232.782 221.799 234.805 219.257 235.877C216.911 236.289 215.158 236.461 213.631 234.086C212.944 233.021 212.743 231.714 213.078 230.492C213.571 228.748 214.223 228.118 215.682 227.284Z" fill="var(--fill-0, #3E3D3D)"/>
<path id="Vector_18" d="M331.198 227.028C333.698 227.036 335.661 227.517 336.632 230.189C337.075 231.372 337.004 232.686 336.44 233.816C335.666 235.38 334.696 235.638 333.175 236.182C330.646 236.418 328.609 235.722 327.764 233.069C327.329 231.734 327.491 230.276 328.21 229.069C329.038 227.668 329.705 227.396 331.198 227.028Z" fill="var(--fill-0, #3E3D3D)"/>
<path id="Vector_19" d="M201.457 227.304C203.707 227.103 205.404 226.916 207.041 228.842C207.836 229.768 208.186 230.995 208 232.201C207.691 234.281 206.559 235.012 204.996 236.105C202.691 236.642 200.067 235.728 199.022 233.49C198.493 232.366 198.448 231.073 198.898 229.914C199.478 228.399 200.067 227.966 201.457 227.304Z" fill="var(--fill-0, #3E3D3D)"/>
<path id="Vector_20" d="M187.806 227.038C189.449 226.605 191.197 227.1 192.369 228.329C193.541 229.558 193.952 231.328 193.442 232.947C192.932 234.568 191.581 235.782 189.916 236.118C187.444 236.616 185.024 235.059 184.453 232.603C183.882 230.146 185.368 227.681 187.806 227.038Z" fill="var(--fill-0, #3E3D3D)"/>
<path id="Vector_21" d="M345.609 227.099C348.105 226.579 350.555 228.163 351.11 230.652C351.663 233.142 350.112 235.614 347.629 236.201C345.994 236.587 344.277 236.064 343.137 234.83C341.994 233.597 341.605 231.844 342.117 230.244C342.628 228.643 343.962 227.441 345.609 227.099Z" fill="var(--fill-0, #3E3D3D)"/>
<path id="Vector_22" d="M173.827 227.063C175.463 226.733 177.151 227.312 178.241 228.577C179.33 229.842 179.653 231.597 179.084 233.167C178.516 234.737 177.144 235.878 175.497 236.152C173.01 236.565 170.651 234.908 170.195 232.428C169.74 229.949 171.355 227.562 173.827 227.063Z" fill="var(--fill-0, #3E3D3D)"/>
<path id="Vector_23" d="M374.503 227.069C376.972 226.594 379.354 228.224 379.805 230.697C380.256 233.17 378.604 235.537 376.127 235.965C373.682 236.387 371.353 234.761 370.907 232.321C370.461 229.881 372.066 227.537 374.503 227.069Z" fill="var(--fill-0, #3E3D3D)"/>
<path id="Vector_24" d="M273.416 242.031C275.715 241.847 277.791 241.885 278.977 244.194C280.432 247.029 278.841 248.992 276.475 250.226C273.93 250.659 271.776 250.151 270.807 247.448C270.391 246.311 270.47 245.053 271.023 243.976C271.624 242.784 272.22 242.458 273.416 242.031Z" fill="var(--fill-0, #3E3D3D)"/>
<path id="Vector_25" d="M159.542 227.393C161.874 226.856 164.202 228.304 164.753 230.633C165.304 232.962 163.87 235.298 161.544 235.863C159.199 236.432 156.839 234.984 156.283 232.635C155.728 230.287 157.19 227.935 159.542 227.393Z" fill="var(--fill-0, #4D4946)"/>
<path id="Vector_26" d="M260.325 242.087C265.094 241.384 267.396 247.942 261.385 250.371C257.416 250.234 254.621 247.689 257.002 243.475C257.665 242.302 259.039 242.236 260.325 242.087Z" fill="var(--fill-0, #4D4946)"/>
<path id="Vector_27" d="M388.795 227.36C391.15 226.913 393.414 228.471 393.84 230.827C394.264 233.183 392.686 235.434 390.327 235.839C387.997 236.238 385.779 234.685 385.361 232.358C384.94 230.031 386.474 227.801 388.795 227.36Z" fill="var(--fill-0, #3E3D3D)"/>
<path id="Vector_28" d="M289.882 241.81C293.18 242.413 294.686 245.5 292.901 248.418C292.018 249.859 291.014 249.964 289.494 250.316C285.827 249.845 283.686 247.239 285.835 243.624C286.754 242.078 288.192 242.072 289.882 241.81Z" fill="var(--fill-0, #3E3D3D)"/>
<path id="Vector_29" d="M302.526 242.007C308.044 241.671 309.969 247.883 304.546 250.223C302.386 250.287 300.541 249.773 299.63 247.604C299.212 246.621 299.214 245.509 299.638 244.528C300.284 242.988 301.123 242.587 302.526 242.007Z" fill="var(--fill-0, #3E3D3D)"/>
<path id="Vector_30" d="M245.411 242.112C246.897 241.813 248.428 242.348 249.405 243.507C250.382 244.666 250.65 246.265 250.104 247.679C249.557 249.093 248.284 250.097 246.782 250.299C244.561 250.596 242.505 249.079 242.135 246.869C241.765 244.659 243.214 242.554 245.411 242.112Z" fill="var(--fill-0, #3E3D3D)"/>
<path id="Vector_31" d="M230.72 242.36C232.831 241.696 235.085 242.843 235.793 244.94C236.5 247.037 235.401 249.314 233.319 250.065C231.933 250.564 230.386 250.276 229.274 249.31C228.161 248.345 227.658 246.853 227.958 245.411C228.258 243.969 229.315 242.802 230.72 242.36Z" fill="var(--fill-0, #3E3D3D)"/>
<path id="Vector_32" d="M316.583 242.289C317.98 241.832 319.514 242.164 320.597 243.156C321.677 244.149 322.142 245.648 321.806 247.078C321.472 248.508 320.392 249.647 318.981 250.056C316.851 250.674 314.62 249.471 313.964 247.351C313.31 245.232 314.475 242.979 316.583 242.289Z" fill="var(--fill-0, #3E3D3D)"/>
<path id="Vector_33" d="M330.974 242.357C336.801 241.868 338.114 247.654 333.331 250.129C327.245 250.742 326.591 243.574 330.974 242.357Z" fill="var(--fill-0, #3E3D3D)"/>
<path id="Vector_34" d="M216.295 242.426C217.653 241.935 219.171 242.214 220.265 243.157C221.359 244.099 221.859 245.559 221.574 246.975C221.289 248.39 220.263 249.542 218.889 249.988C216.814 250.662 214.581 249.546 213.874 247.483C213.166 245.419 214.243 243.168 216.295 242.426Z" fill="var(--fill-0, #4D4946)"/>
<path id="Vector_35" d="M202.971 242.24C205.035 242.05 206.889 243.505 207.195 245.556C207.502 247.607 206.153 249.54 204.123 249.961C202.703 250.255 201.238 249.74 200.315 248.623C199.391 247.505 199.162 245.969 199.719 244.631C200.276 243.293 201.527 242.372 202.971 242.24Z" fill="var(--fill-0, #4D4946)"/>
<path id="Vector_36" d="M258.962 257.397C260.259 256.821 261.766 256.998 262.893 257.86C264.021 258.722 264.587 260.13 264.371 261.532C264.155 262.935 263.191 264.107 261.857 264.59C259.893 265.3 257.719 264.328 256.939 262.39C256.159 260.452 257.053 258.245 258.962 257.397Z" fill="var(--fill-0, #3E3D3D)"/>
<path id="Vector_37" d="M346.235 242.311C348.359 242.152 350.213 243.737 350.388 245.861C350.561 247.984 348.988 249.849 346.864 250.036C344.723 250.225 342.839 248.633 342.664 246.491C342.489 244.348 344.091 242.472 346.235 242.311Z" fill="var(--fill-0, #3E3D3D)"/>
<path id="Vector_38" d="M360.355 242.369C361.752 242.137 363.163 242.687 364.038 243.801C364.911 244.916 365.105 246.419 364.544 247.718C363.984 249.018 362.756 249.908 361.348 250.039C359.272 250.231 357.418 248.747 357.153 246.682C356.885 244.617 358.302 242.71 360.355 242.369Z" fill="var(--fill-0, #3E3D3D)"/>
<path id="Vector_39" d="M274.203 257.166C276.221 256.754 278.206 258.009 278.698 260.009C279.193 262.01 278.02 264.044 276.043 264.619C274.687 265.012 273.228 264.633 272.237 263.629C271.246 262.626 270.885 261.161 271.295 259.812C271.705 258.463 272.822 257.447 274.203 257.166Z" fill="var(--fill-0, #3E3D3D)"/>
<path id="Vector_40" d="M188.155 242.393C189.495 242.092 190.894 242.54 191.809 243.564C192.724 244.588 193.013 246.028 192.563 247.325C192.113 248.623 190.996 249.575 189.643 249.814C187.618 250.17 185.68 248.845 185.276 246.83C184.871 244.814 186.15 242.845 188.155 242.393Z" fill="var(--fill-0, #3E3D3D)"/>
<path id="Vector_41" d="M288.468 257.338C290.467 256.83 292.499 258.044 292.997 260.045C293.494 262.046 292.269 264.07 290.265 264.557C288.277 265.041 286.27 263.828 285.775 261.841C285.283 259.855 286.486 257.842 288.468 257.338Z" fill="var(--fill-0, #3E3D3D)"/>
<path id="Vector_42" d="M173.013 242.562C173.179 242.55 173.347 242.541 173.513 242.533C178.431 242.325 180.427 246.236 176.475 249.666C171.432 250.876 169.711 246.344 173.013 242.562Z" fill="var(--fill-0, #3E3D3D)"/>
<path id="Vector_43" d="M245.045 257.46C246.993 256.807 249.099 257.869 249.734 259.822C250.369 261.776 249.289 263.873 247.331 264.491C245.395 265.101 243.33 264.038 242.703 262.108C242.076 260.178 243.121 258.104 245.045 257.46Z" fill="var(--fill-0, #3E3D3D)"/>
<path id="Vector_44" d="M374.202 242.607C376.171 242.063 378.208 243.226 378.741 245.199C379.277 247.172 378.104 249.203 376.127 249.726C374.166 250.246 372.151 249.083 371.623 247.124C371.093 245.165 372.244 243.147 374.202 242.607Z" fill="var(--fill-0, #3E3D3D)"/>
<path id="Vector_45" d="M303.201 257.363C305.205 257.161 306.994 258.623 307.193 260.628C307.393 262.633 305.93 264.42 303.926 264.618C301.924 264.817 300.139 263.355 299.939 261.353C299.739 259.35 301.2 257.565 303.201 257.363Z" fill="var(--fill-0, #3E3D3D)"/>
<path id="Vector_46" d="M317.286 257.355C319.233 257.025 321.089 258.304 321.472 260.241C321.858 262.178 320.63 264.068 318.702 264.505C317.409 264.798 316.058 264.366 315.175 263.376C314.295 262.386 314.018 260.995 314.456 259.743C314.896 258.492 315.979 257.577 317.286 257.355Z" fill="var(--fill-0, #4D4946)"/>
<path id="Vector_47" d="M202.521 257.302C204.462 256.904 206.364 258.131 206.802 260.063C207.24 261.995 206.053 263.923 204.13 264.401C202.851 264.719 201.499 264.32 200.597 263.358C199.695 262.397 199.384 261.023 199.783 259.766C200.182 258.509 201.23 257.567 202.521 257.302Z" fill="var(--fill-0, #4D4946)"/>
<path id="Vector_48" d="M259.682 272.166C260.952 271.849 262.294 272.244 263.191 273.197C264.088 274.151 264.4 275.513 264.006 276.762C263.613 278.012 262.575 278.95 261.294 279.215C259.365 279.617 257.471 278.4 257.032 276.481C256.593 274.561 257.771 272.643 259.682 272.166Z" fill="var(--fill-0, #3E3D3D)"/>
<path id="Vector_49" d="M331.316 257.46C333.244 256.932 335.234 258.074 335.751 260.006C336.268 261.937 335.114 263.921 333.181 264.427C331.261 264.928 329.298 263.787 328.784 261.87C328.27 259.954 329.402 257.984 331.316 257.46Z" fill="var(--fill-0, #3E3D3D)"/>
<path id="Vector_50" d="M289.018 272.093C290.984 271.927 292.718 273.372 292.906 275.335C293.095 277.298 291.67 279.048 289.71 279.261C288.419 279.401 287.156 278.835 286.398 277.782C285.641 276.729 285.51 275.351 286.051 274.175C286.593 272.997 287.727 272.202 289.018 272.093Z" fill="var(--fill-0, #3E3D3D)"/>
<path id="Vector_51" d="M274.621 272.116C276.516 271.917 278.236 273.229 278.545 275.108C278.852 276.986 277.64 278.78 275.784 279.196C274.482 279.488 273.127 279.035 272.262 278.02C271.398 277.006 271.167 275.595 271.662 274.356C272.156 273.119 273.296 272.256 274.621 272.116Z" fill="var(--fill-0, #3E3D3D)"/>
<path id="Vector_52" d="M216.799 257.372C218.694 256.906 220.612 258.046 221.107 259.933C221.602 261.82 220.491 263.756 218.612 264.279C217.371 264.625 216.039 264.275 215.128 263.364C214.217 262.453 213.868 261.122 214.214 259.88C214.56 258.639 215.548 257.681 216.799 257.372Z" fill="var(--fill-0, #3E3D3D)"/>
<path id="Vector_53" d="M274.113 286.967C275.964 286.489 277.862 287.571 278.389 289.412C278.917 291.249 277.884 293.174 276.06 293.751C274.835 294.137 273.5 293.828 272.569 292.945C271.639 292.061 271.26 290.743 271.581 289.502C271.902 288.26 272.871 287.29 274.113 286.967Z" fill="var(--fill-0, #3E3D3D)"/>
<path id="Vector_54" d="M231.288 257.437C233.174 257.045 235.024 258.24 235.443 260.119C235.862 261.999 234.694 263.866 232.821 264.312C231.585 264.606 230.287 264.212 229.423 263.28C228.559 262.349 228.264 261.024 228.65 259.814C229.037 258.604 230.045 257.696 231.288 257.437Z" fill="var(--fill-0, #3E3D3D)"/>
<path id="Vector_55" d="M316.364 272.522C318.106 271.638 320.231 272.339 321.106 274.082C321.981 275.83 321.27 277.952 319.52 278.819C317.784 279.677 315.678 278.972 314.811 277.238C313.945 275.507 314.636 273.399 316.364 272.522Z" fill="var(--fill-0, #3E3D3D)"/>
<path id="Vector_56" d="M302.173 272.466C303.352 271.941 304.724 272.107 305.747 272.896C306.767 273.686 307.275 274.971 307.065 276.245C306.857 277.52 305.966 278.575 304.746 278.996C302.969 279.611 301.019 278.715 300.33 276.965C299.641 275.215 300.453 273.23 302.173 272.466Z" fill="var(--fill-0, #4D4946)"/>
<path id="Vector_57" d="M288.723 286.88C290.568 286.541 292.354 287.719 292.767 289.548C293.18 291.38 292.072 293.21 290.259 293.696C289.021 294.027 287.7 293.653 286.82 292.723C285.936 291.791 285.636 290.453 286.032 289.234C286.431 288.017 287.462 287.112 288.723 286.88Z" fill="var(--fill-0, #4D4946)"/>
<path id="Vector_58" d="M345.286 257.689C346.464 257.221 347.804 257.431 348.783 258.235C349.762 259.04 350.227 260.314 349.997 261.56C349.768 262.807 348.876 263.83 347.676 264.232C345.885 264.83 343.946 263.895 343.298 262.123C342.65 260.35 343.53 258.385 345.286 257.689Z" fill="var(--fill-0, #3E3D3D)"/>
<path id="Vector_59" d="M302.755 286.942C304.555 286.489 306.395 287.53 306.928 289.311C307.464 291.088 306.504 292.972 304.752 293.587C303.546 294.008 302.206 293.735 301.263 292.871C300.319 292.009 299.925 290.7 300.237 289.461C300.549 288.222 301.517 287.254 302.755 286.942Z" fill="var(--fill-0, #3E3D3D)"/>
<path id="Vector_60" d="M260.163 286.915C261.996 286.623 263.733 287.826 264.105 289.644C264.477 291.462 263.351 293.251 261.55 293.702C260.314 294.011 259.007 293.617 258.148 292.677C257.289 291.733 257.016 290.396 257.436 289.193C257.857 287.99 258.904 287.115 260.163 286.915Z" fill="var(--fill-0, #4D4946)"/>
<path id="Vector_61" d="M330.777 272.509C332.511 271.704 334.57 272.457 335.374 274.192C336.178 275.925 335.426 277.982 333.692 278.786C331.959 279.59 329.9 278.838 329.096 277.104C328.292 275.37 329.046 273.313 330.777 272.509Z" fill="var(--fill-0, #4D4946)"/>
<path id="Vector_62" d="M188.412 257.464C190.266 257.143 192.035 258.367 192.389 260.215C192.742 262.063 191.55 263.854 189.708 264.24C188.488 264.496 187.224 264.073 186.403 263.135C185.582 262.196 185.332 260.887 185.748 259.712C186.164 258.536 187.183 257.677 188.412 257.464Z" fill="var(--fill-0, #4D4946)"/>
<path id="Vector_63" d="M316.909 286.994C318.716 286.407 320.657 287.391 321.251 289.196C321.844 291 320.865 292.947 319.061 293.543C317.25 294.145 315.295 293.161 314.702 291.348C314.106 289.537 315.093 287.585 316.909 286.994Z" fill="var(--fill-0, #4D4946)"/>
<path id="Vector_64" d="M216.727 272.156C218.574 271.715 220.429 272.852 220.875 274.698C221.322 276.543 220.191 278.403 218.346 278.854C216.494 279.308 214.625 278.17 214.177 276.317C213.729 274.463 214.872 272.598 216.727 272.156Z" fill="var(--fill-0, #4D4946)"/>
<path id="Vector_65" d="M245.349 286.967C247.165 286.442 249.064 287.478 249.606 289.289C250.148 291.099 249.129 293.007 247.324 293.565C245.495 294.131 243.556 293.098 243.007 291.263C242.459 289.431 243.511 287.5 245.349 286.967Z" fill="var(--fill-0, #3E3D3D)"/>
<path id="Vector_66" d="M259.519 301.749C260.691 301.285 262.024 301.498 262.993 302.305C263.962 303.111 264.413 304.383 264.169 305.619C263.924 306.857 263.023 307.861 261.819 308.238C260.052 308.791 258.163 307.847 257.544 306.103C256.925 304.355 257.798 302.433 259.519 301.749Z" fill="var(--fill-0, #3E3D3D)"/>
<path id="Vector_67" d="M202.227 272.217C203.426 271.866 204.72 272.192 205.61 273.068C206.499 273.943 206.845 275.234 206.512 276.437C206.18 277.64 205.222 278.57 204.008 278.865C202.191 279.308 200.353 278.217 199.869 276.412C199.385 274.605 200.432 272.742 202.227 272.217Z" fill="var(--fill-0, #4D4946)"/>
<path id="Vector_68" d="M244.986 272.489C246.159 271.996 247.507 272.19 248.493 272.994C249.479 273.798 249.942 275.081 249.696 276.327C249.45 277.574 248.536 278.586 247.318 278.955C245.565 279.486 243.703 278.553 243.082 276.831C242.46 275.108 243.297 273.199 244.986 272.489Z" fill="var(--fill-0, #4D4946)"/>
<path id="Vector_69" d="M287.982 301.812C289.149 301.364 290.473 301.585 291.43 302.392C292.389 303.199 292.832 304.465 292.589 305.692C292.346 306.923 291.452 307.921 290.257 308.301C288.485 308.864 286.584 307.918 285.969 306.163C285.354 304.407 286.245 302.48 287.982 301.812Z" fill="var(--fill-0, #3E3D3D)"/>
<path id="Vector_70" d="M274.17 316.245C275.98 315.774 277.832 316.841 278.335 318.643C278.841 320.442 277.813 322.315 276.021 322.856C274.832 323.215 273.539 322.903 272.645 322.039C271.751 321.175 271.392 319.898 271.709 318.695C272.025 317.491 272.966 316.556 274.17 316.245Z" fill="var(--fill-0, #3E3D3D)"/>
<path id="Vector_71" d="M230.55 272.491C231.667 271.962 232.982 272.076 233.992 272.787C235.002 273.5 235.55 274.7 235.428 275.928C235.306 277.159 234.532 278.228 233.402 278.726C231.686 279.483 229.679 278.72 228.899 277.017C228.119 275.31 228.855 273.293 230.55 272.491Z" fill="var(--fill-0, #3E3D3D)"/>
<path id="Vector_72" d="M273.44 301.886C274.529 301.298 275.855 301.342 276.902 302.006C277.946 302.671 278.554 303.849 278.485 305.088C278.417 306.324 277.684 307.429 276.571 307.973C274.898 308.791 272.876 308.121 272.023 306.464C271.171 304.807 271.8 302.772 273.44 301.886Z" fill="var(--fill-0, #4D4946)"/>
<path id="Vector_73" d="M359.847 257.706C361.041 257.336 362.343 257.648 363.24 258.519C364.134 259.39 364.484 260.681 364.148 261.885C363.814 263.089 362.849 264.014 361.629 264.296C359.841 264.711 358.042 263.635 357.561 261.86C357.082 260.086 358.091 258.25 359.847 257.706Z" fill="var(--fill-0, #3E3D3D)"/>
<path id="Vector_74" d="M274.452 331.041C276.309 330.764 278.039 332.044 278.321 333.898C278.603 335.755 277.331 337.488 275.477 337.775C273.613 338.065 271.87 336.786 271.586 334.923C271.303 333.059 272.587 331.319 274.452 331.041Z" fill="var(--fill-0, #4D4946)"/>
<path id="Vector_75" d="M259.516 316.499C261.252 315.799 263.227 316.633 263.937 318.364C264.646 320.097 263.823 322.077 262.095 322.796C260.354 323.521 258.356 322.69 257.641 320.945C256.927 319.201 257.767 317.204 259.516 316.499Z" fill="var(--fill-0, #4D4946)"/>
<path id="Vector_76" d="M289.141 316.217C290.959 316.149 292.507 317.522 292.66 319.332C292.811 321.145 291.512 322.755 289.71 322.988C288.468 323.152 287.238 322.616 286.508 321.599C285.778 320.581 285.666 319.247 286.215 318.12C286.768 316.997 287.891 316.267 289.141 316.217Z" fill="var(--fill-0, #4D4946)"/>
<path id="Vector_77" d="M217.237 286.699C219.015 286.603 220.564 287.9 220.784 289.666C221.003 291.432 219.818 293.068 218.071 293.412C216.827 293.656 215.552 293.182 214.764 292.19C213.977 291.197 213.809 289.849 214.329 288.693C214.85 287.536 215.971 286.767 217.237 286.699Z" fill="var(--fill-0, #3E3D3D)"/>
<path id="Vector_78" d="M244.929 301.87C246.619 301.09 248.622 301.826 249.403 303.516C250.185 305.206 249.45 307.21 247.762 307.992C246.07 308.78 244.063 308.041 243.28 306.349C242.496 304.656 243.235 302.649 244.929 301.87Z" fill="var(--fill-0, #4D4946)"/>
<path id="Vector_79" d="M345.527 272.457C346.691 272.083 347.968 272.372 348.857 273.212C349.748 274.052 350.112 275.307 349.806 276.494C349.5 277.678 348.575 278.602 347.391 278.909C345.63 279.36 343.831 278.332 343.325 276.587C342.822 274.843 343.796 273.012 345.527 272.457Z" fill="var(--fill-0, #3E3D3D)"/>
<path id="Vector_80" d="M302.34 301.87C303.488 301.446 304.776 301.681 305.7 302.482C306.625 303.283 307.04 304.525 306.786 305.723C306.532 306.917 305.646 307.88 304.473 308.235C302.736 308.76 300.893 307.809 300.316 306.089C299.739 304.366 300.636 302.496 302.34 301.87Z" fill="var(--fill-0, #4D4946)"/>
<path id="Vector_81" d="M258.893 331.344C259.976 330.794 261.27 330.874 262.279 331.549C263.287 332.225 263.852 333.392 263.756 334.604C263.659 335.815 262.917 336.879 261.815 337.384C260.154 338.153 258.185 337.445 257.389 335.798C256.592 334.152 257.261 332.17 258.893 331.344Z" fill="var(--fill-0, #4D4946)"/>
<path id="Vector_82" d="M230.381 301.818C232.026 301.028 234.001 301.703 234.819 303.335C235.637 304.965 234.996 306.953 233.379 307.798C232.308 308.359 231.017 308.298 230.004 307.637C228.991 306.978 228.412 305.824 228.49 304.618C228.568 303.412 229.291 302.34 230.381 301.818Z" fill="var(--fill-0, #3E3D3D)"/>
<path id="Vector_83" d="M231.415 286.888C233.226 286.587 234.941 287.804 235.255 289.611C235.569 291.421 234.363 293.144 232.556 293.47C230.732 293.798 228.99 292.578 228.674 290.752C228.357 288.928 229.588 287.191 231.415 286.888Z" fill="var(--fill-0, #4D4946)"/>
<path id="Vector_84" d="M331.453 286.953C333.189 286.513 334.961 287.525 335.467 289.245C335.973 290.965 335.029 292.775 333.329 293.347C332.172 293.735 330.895 293.459 330.001 292.627C329.104 291.796 328.738 290.541 329.038 289.357C329.342 288.176 330.269 287.251 331.453 286.953Z" fill="var(--fill-0, #4D4946)"/>
<path id="Vector_85" d="M316.993 301.796C318.727 301.315 320.526 302.296 321.059 304.014C321.593 305.731 320.663 307.56 318.965 308.142C317.819 308.536 316.548 308.274 315.651 307.462C314.754 306.647 314.368 305.411 314.65 304.232C314.929 303.051 315.826 302.119 316.993 301.796Z" fill="var(--fill-0, #3E3D3D)"/>
<path id="Vector_86" d="M245.652 316.253C246.832 316.045 248.032 316.491 248.791 317.418C249.55 318.342 249.752 319.608 249.318 320.724C248.884 321.839 247.883 322.635 246.697 322.807C244.902 323.064 243.232 321.834 242.947 320.043C242.661 318.252 243.866 316.565 245.652 316.253Z" fill="var(--fill-0, #3E3D3D)"/>
<path id="Vector_87" d="M302.572 316.485C304.336 316.02 306.138 317.081 306.592 318.845C307.046 320.611 305.977 322.411 304.207 322.854C302.452 323.291 300.675 322.233 300.223 320.48C299.775 318.73 300.825 316.945 302.572 316.485Z" fill="var(--fill-0, #4D4946)"/>
<path id="Vector_88" d="M288.261 331.273C289.98 330.726 291.821 331.672 292.376 333.392C292.931 335.109 291.993 336.955 290.276 337.516C288.548 338.079 286.694 337.133 286.136 335.405C285.578 333.679 286.53 331.825 288.261 331.273Z" fill="var(--fill-0, #3E3D3D)"/>
<path id="Vector_89" d="M273.604 346.378C274.695 345.924 275.945 346.091 276.877 346.815C277.81 347.54 278.28 348.713 278.108 349.881C277.936 351.048 277.145 352.035 276.043 352.459C274.373 353.105 272.493 352.284 271.826 350.622C271.159 348.959 271.951 347.07 273.604 346.378Z" fill="var(--fill-0, #4D4946)"/>
<path id="Vector_90" d="M397.715 282.045L398.136 282.502C398.366 285.942 395.177 293.226 392.913 295.851C392.651 295.572 392.563 295.373 392.358 295.042C392.336 293.221 396.659 284.96 397.715 282.045Z" fill="var(--fill-0, #E7CB9F)"/>
<path id="Vector_91" d="M408.773 65.7665C411.357 66.7698 410.011 69.5879 409.265 71.2616L409.177 71.7869L408.92 71.5927C408.573 69.6302 408.239 67.7227 408.773 65.7665Z" fill="var(--fill-0, #D2AD7E)"/>
<path id="Vector_92" d="M215.849 65.7714C215.953 65.7848 216.614 65.8671 216.71 65.9246C217.854 66.6123 219.808 71.3045 220.161 72.4393C218.637 70.7585 215.94 67.965 215.849 65.7714Z" fill="var(--fill-0, #E7CB9F)"/>
<path id="Vector_93" d="M125.753 338.579C126.629 338.817 126.603 338.774 127.169 339.463C127.504 340.439 127.432 340.622 127.205 341.639C126.375 341.541 126.421 341.541 125.778 340.988C125.389 340.092 125.59 339.556 125.753 338.579Z" fill="var(--fill-0, #9B9C97)"/>
<path id="Vector_94" d="M273.124 178.469L273.716 178.649L273.949 179.09C273.705 179.96 272.93 180.519 272.238 181.172C271.423 180.75 271.68 181.06 271.37 180.274C271.69 179.405 272.359 179.052 273.124 178.469Z" fill="var(--fill-0, #E7CB9F)"/>
<path id="Vector_95" d="M281.359 326.378C282.212 326.408 282.688 326.335 283.322 326.884C283.604 327.858 283.525 327.535 283.259 328.634C282.693 328.648 282.614 328.544 282.084 328.306C281.457 327.543 281.498 327.404 281.359 326.378Z" fill="var(--fill-0, #E7CB9F)"/>
<path id="Vector_96" d="M542.825 233.715L543.348 233.721L543.577 234.049C543.14 234.769 541.978 235.489 541.248 236.015C541.037 236.128 540.873 236.117 540.611 236.154L540.608 235.632C541.245 234.668 541.877 234.343 542.825 233.715Z" fill="var(--fill-0, #D2AD7E)"/>
<path id="Vector_97" d="M87.9993 44.6958C88.5194 44.5145 89.0903 44.774 89.2959 45.2851C89.5016 45.7962 89.2694 46.3786 88.7688 46.608C88.4229 46.7666 88.0182 46.722 87.7152 46.4921C87.4122 46.2624 87.2602 45.8845 87.3195 45.5091C87.3791 45.1333 87.6403 44.8211 87.9993 44.6958Z" fill="var(--fill-0, #E7CB9F)"/>
</g>
<defs>
<clipPath id="clip0_31_1694">
<rect width="560" height="417" fill="white"/>
</clipPath>
</defs>
</svg>
