<svg preserveAspectRatio="none" width="100%" height="100%" overflow="visible" style="display: block;" viewBox="0 0 30 21" fill="none" xmlns="http://www.w3.org/2000/svg">
<g id="Container">
<path id="Icon" d="M3 21C2.175 21 1.46875 20.7062 0.88125 20.1187C0.29375 19.5312 0 18.825 0 18V3C0 2.175 0.29375 1.46875 0.88125 0.88125C1.46875 0.29375 2.175 0 3 0H27C27.825 0 28.5312 0.29375 29.1187 0.88125C29.7062 1.46875 30 2.175 30 3V18C30 18.825 29.7062 19.5312 29.1187 20.1187C28.5312 20.7062 27.825 21 27 21H3V21M3 18H27V18V18V3V3V3H3V3V3V18V18V18V18M9 16.5H21V13.5H9V16.5V16.5M4.5 12H7.5V9H4.5V12V12M9 12H12V9H9V12V12M13.5 12H16.5V9H13.5V12V12M18 12H21V9H18V12V12M22.5 12H25.5V9H22.5V12V12M4.5 7.5H7.5V4.5H4.5V7.5V7.5M9 7.5H12V4.5H9V7.5V7.5M13.5 7.5H16.5V4.5H13.5V7.5V7.5M18 7.5H21V4.5H18V7.5V7.5M22.5 7.5H25.5V4.5H22.5V7.5V7.5M3 18V18V18V3V3V3V3V3V3V18V18V18V18V18" fill="var(--fill-0, #AB2E15)"/>
</g>
</svg>
