<svg preserveAspectRatio="none" width="100%" height="100%" overflow="visible" style="display: block;" viewBox="0 0 16.9999 18.8076" fill="none" xmlns="http://www.w3.org/2000/svg">
<g id="Container">
<path id="Icon" d="M2.49996 18.8076C1.80126 18.8076 1.20992 18.5656 0.725951 18.0817C0.241984 17.5977 0 17.0064 0 16.3076V13.8077H3V0L4.38461 1.19229L5.78845 0L7.19229 1.19229L8.59612 0L9.99996 1.19229L11.4038 0L12.8076 1.19229L14.2115 0L15.6153 1.19229L16.9999 0V16.3076C16.9999 17.0064 16.7579 17.5977 16.274 18.0817C15.79 18.5656 15.1987 18.8076 14.5 18.8076H2.49996V18.8076M14.5 17.3076C14.7833 17.3076 15.0208 17.2118 15.2125 17.0201C15.4041 16.8285 15.5 16.591 15.5 16.3076V2.30764H4.49996V13.8077H13.5V16.3076C13.5 16.591 13.5958 16.8285 13.7875 17.0201C13.9791 17.2118 14.2166 17.3076 14.5 17.3076V17.3076M5.69229 6.05762V4.55766H11.3653V6.05762H5.69229V6.05762M5.69229 9.05762V7.55766H11.3653V9.05762H5.69229V9.05762M13.4423 6.19225C13.1974 6.19225 12.9887 6.10603 12.8163 5.9336C12.6439 5.76116 12.5577 5.55251 12.5577 5.30764C12.5577 5.06277 12.6439 4.85412 12.8163 4.68169C12.9887 4.50925 13.1974 4.42303 13.4423 4.42303C13.6871 4.42303 13.8958 4.50925 14.0682 4.68169C14.2407 4.85412 14.3269 5.06277 14.3269 5.30764C14.3269 5.55251 14.2407 5.76116 14.0682 5.9336C13.8958 6.10603 13.6871 6.19225 13.4423 6.19225V6.19225M13.4423 9.19225C13.1974 9.19225 12.9887 9.10603 12.8163 8.9336C12.6439 8.76116 12.5577 8.55251 12.5577 8.30764C12.5577 8.06277 12.6439 7.85412 12.8163 7.68169C12.9887 7.50925 13.1974 7.42303 13.4423 7.42303C13.6871 7.42303 13.8958 7.50925 14.0682 7.68169C14.2407 7.85412 14.3269 8.06277 14.3269 8.30764C14.3269 8.55251 14.2407 8.76116 14.0682 8.9336C13.8958 9.10603 13.6871 9.19225 13.4423 9.19225V9.19225M2.49996 17.3076H12V15.3076H1.49996V16.3076C1.49996 16.591 1.5958 16.8285 1.78746 17.0201C1.97913 17.2118 2.21663 17.3076 2.49996 17.3076V17.3076M1.49996 17.3076C1.49996 17.3076 1.49996 17.2118 1.49996 17.0201C1.49996 16.8285 1.49996 16.591 1.49996 16.3076V15.3076V15.3076V17.3076V17.3076V17.3076" fill="var(--fill-0, #1B1C18)" fill-opacity="0.5"/>
</g>
</svg>
