<svg preserveAspectRatio="none" width="100%" height="100%" overflow="visible" style="display: block;" viewBox="0 0 30 30" fill="none" xmlns="http://www.w3.org/2000/svg">
<g id="Container">
<path id="Icon" d="M14.1 10.5H26.1C25.425 8.775 24.3938 7.29375 23.0063 6.05625C21.6188 4.81875 20.025 3.95 18.225 3.45L14.1 10.5V10.5M10.65 13.5L16.65 3.15C16.375 3.1 16.1 3.0625 15.825 3.0375C15.55 3.0125 15.275 3 15 3C13.35 3 11.8125 3.3125 10.3875 3.9375C8.9625 4.5625 7.7 5.4 6.6 6.45L10.65 13.5V13.5M3.375 18H11.55L5.55 7.65C4.75 8.675 4.125 9.80625 3.675 11.0437C3.225 12.2812 3 13.6 3 15C3 15.525 3.03125 16.0312 3.09375 16.5187C3.15625 17.0062 3.25 17.5 3.375 18V18M11.775 26.55L15.825 19.5H3.9C4.575 21.225 5.60625 22.7063 6.99375 23.9438C8.38125 25.1813 9.975 26.05 11.775 26.55V26.55M15 27C16.65 27 18.1875 26.6875 19.6125 26.0625C21.0375 25.4375 22.3 24.6 23.4 23.55L19.35 16.5L13.35 26.85C13.625 26.9 13.8938 26.9375 14.1562 26.9625C14.4187 26.9875 14.7 27 15 27V27M24.45 22.35C25.25 21.325 25.875 20.1937 26.325 18.9562C26.775 17.7187 27 16.4 27 15C27 14.475 26.9688 13.9687 26.9062 13.4812C26.8438 12.9937 26.75 12.5 26.625 12H18.45L24.45 22.35V22.35M15 15V15V15V15V15V15V15V15V15V15V15V15V15V15V15V15V15V15M15 30C12.95 30 11.0125 29.6063 9.1875 28.8188C7.3625 28.0313 5.76875 26.9562 4.40625 25.5938C3.04375 24.2313 1.96875 22.6375 1.18125 20.8125C0.39375 18.9875 0 17.05 0 15C0 12.925 0.39375 10.9812 1.18125 9.16875C1.96875 7.35625 3.04375 5.76875 4.40625 4.40625C5.76875 3.04375 7.3625 1.96875 9.1875 1.18125C11.0125 0.39375 12.95 0 15 0C17.075 0 19.0187 0.39375 20.8312 1.18125C22.6437 1.96875 24.2313 3.04375 25.5938 4.40625C26.9562 5.76875 28.0313 7.35625 28.8188 9.16875C29.6063 10.9812 30 12.925 30 15C30 17.05 29.6063 18.9875 28.8188 20.8125C28.0313 22.6375 26.9562 24.2313 25.5938 25.5938C24.2313 26.9562 22.6437 28.0313 20.8312 28.8188C19.0187 29.6063 17.075 30 15 30V30" fill="var(--fill-0, #AB2E15)"/>
</g>
</svg>
